<svg width="198" height="32" viewBox="0 0 198 32" fill="none" xmlns="http://www.w3.org/2000/svg">
  <defs>
    <linearGradient id="savvyGradient" x1="18" y1="1" x2="179" y2="31" gradientUnits="userSpaceOnUse">
      <stop offset="0%" stop-color="#F9FBFF"/>
      <stop offset="18%" stop-color="#D7E3FF"/>
      <stop offset="37%" stop-color="#FAFCFF"/>
      <stop offset="44%" stop-color="#9EBBFF"/>
      <stop offset="61%" stop-color="#DCE8FF"/>
      <stop offset="69%" stop-color="#5A89E8"/>
      <stop offset="100%" stop-color="#91A9E8"/>
    </linearGradient>
    <linearGradient id="savvyHighlight" x1="99" y1="0" x2="99" y2="32" gradientUnits="userSpaceOnUse">
      <stop offset="0%" stop-color="#FFFFFF" stop-opacity="0.92"/>
      <stop offset="34%" stop-color="#FFFFFF" stop-opacity="0.24"/>
      <stop offset="58%" stop-color="#FFFFFF" stop-opacity="0"/>
      <stop offset="100%" stop-color="#2C62D7" stop-opacity="0.24"/>
    </linearGradient>
    <filter id="savvyShadow" x="-8" y="-8" width="214" height="48" filterUnits="userSpaceOnUse" color-interpolation-filters="sRGB">
      <feFlood flood-opacity="0" result="BackgroundImageFix"/>
      <feColorMatrix in="SourceAlpha" type="matrix" values="0 0 0 0 0 0 0 0 0 0 0 0 0 0 0 0 0 0 127 0" result="hardAlpha"/>
      <feOffset dy="1.5"/>
      <feGaussianBlur stdDeviation="1.4"/>
      <feComposite in2="hardAlpha" operator="out"/>
      <feColorMatrix type="matrix" values="0 0 0 0 0.168627 0 0 0 0 0.25098 0 0 0 0 0.490196 0 0 0 0.48 0"/>
      <feBlend mode="normal" in2="BackgroundImageFix" result="effect1_dropShadow_1_2"/>
      <feBlend mode="normal" in="SourceGraphic" in2="effect1_dropShadow_1_2" result="shape"/>
    </filter>
  </defs>
  <g filter="url(#savvyShadow)">
    <path
      d="M28.9918 31.44C27.1038 31.44 25.2478 31.328 23.4238 31.104C21.6318 30.912 19.8878 30.608 18.1918 30.192L20.8798 22.272C22.0958 22.592 23.4078 22.864 24.8158 23.088C26.2238 23.28 27.5518 23.376 28.7998 23.376C29.8238 23.376 30.7198 23.36 31.4878 23.328C32.2558 23.264 32.9918 23.184 33.6958 23.088L34.0798 20.688L30.0958 20.304C26.9598 19.984 24.7838 19.28 23.5678 18.192C22.3518 17.072 21.7438 15.552 21.7438 13.632C21.7438 12.768 21.8398 11.808 22.0318 10.752C22.5438 8.03197 23.2798 5.88797 24.2398 4.31997C25.2318 2.75197 26.6398 1.64797 28.4638 1.00797C30.2878 0.335969 32.7038 -3.14713e-05 35.7118 -3.14713e-05C37.4718 -3.14713e-05 39.1998 0.0959692 40.8958 0.287971C42.5918 0.47997 44.2238 0.78397 45.7918 1.19997L43.2958 8.87997C42.0478 8.65597 40.8638 8.47997 39.7438 8.35197C38.6238 8.22397 37.3758 8.15997 35.9998 8.15997C35.2638 8.15997 34.6398 8.17597 34.1278 8.20797C33.6158 8.23997 32.9918 8.30397 32.2558 8.39997L31.8718 10.752L35.0878 11.088C37.3918 11.312 39.1998 11.76 40.5118 12.432C41.8238 13.072 42.7518 13.888 43.2958 14.88C43.8398 15.84 44.1118 16.96 44.1118 18.24C44.1118 18.624 44.0798 19.024 44.0158 19.44C43.9838 19.824 43.9358 20.24 43.8718 20.688C43.4238 23.28 42.7038 25.312 41.7118 26.784C40.7198 28.256 39.5518 29.328 38.2078 30C36.8638 30.64 35.3918 31.04 33.7918 31.2C32.2238 31.36 30.6238 31.44 28.9918 31.44ZM23.4718 2.68797L4.94377 0.719971H25.5838C25.1678 0.975969 24.7838 1.27997 24.4318 1.63197C24.1118 1.95197 23.7918 2.30397 23.4718 2.68797ZM21.2638 7.43997L1.34377 5.32797H21.9838L21.2638 7.43997ZM20.3518 12.096L-0.000226974 9.93597H20.6878C20.6558 10.032 20.6238 10.128 20.5918 10.224C20.5918 10.32 20.5918 10.416 20.5918 10.512C20.5598 10.736 20.5118 10.976 20.4478 11.232C20.4158 11.488 20.3838 11.776 20.3518 12.096ZM20.7358 16.704L0.431773 14.544H20.3518C20.3838 14.96 20.4158 15.344 20.4478 15.696C20.5118 16.016 20.6078 16.352 20.7358 16.704ZM27.0718 21.312L1.67977 19.152H22.3678C23.4238 20.176 24.9918 20.896 27.0718 21.312ZM18.0958 25.872L0.863773 23.76H18.8158L18.0958 25.872ZM16.5598 30.528L0.0477731 28.416H17.2798L16.5598 30.528ZM55.4806 30.72L68.1046 0.719971H82.2166L84.3287 30.72H74.6806L74.4886 25.968H66.9526L65.0806 30.72H55.4806ZM65.6566 2.78397L46.0726 0.719971H66.5206L65.6566 2.78397ZM63.6886 7.39197L44.1046 5.32797H64.5526L63.6886 7.39197ZM61.7686 12.048L42.1366 9.93597H62.6326L61.7686 12.048ZM69.9286 18.336H73.7686V9.93597H73.2886L69.9286 18.336ZM59.8006 16.656L40.1686 14.544H60.7126L59.8006 16.656ZM57.8806 21.264L38.2006 19.152H58.7446L57.8806 21.264ZM55.9126 25.872L36.2326 23.76H56.8246L55.9126 25.872ZM53.9446 30.528L34.2646 28.416H54.8566L53.9446 30.528ZM100.939 30.72L99.1633 0.719971H109.291V19.776H109.723L116.971 0.719971H126.619L114.283 30.72H100.939ZM97.8193 2.87997L77.5153 0.719971H97.7233L97.8193 2.87997ZM98.1073 7.48797L77.7553 5.32797H97.9633L98.1073 7.48797ZM98.3473 12.096L78.0433 9.93597H98.2513L98.3473 12.096ZM98.6353 16.704L78.3313 14.544H98.4913L98.6353 16.704ZM98.9233 21.312L78.6193 19.152H98.7793L98.9233 21.312ZM99.2113 25.92L78.8593 23.76H99.0673L99.2113 25.92ZM99.4993 30.576L79.1473 28.416H99.3553L99.4993 30.576ZM139.002 30.72L137.226 0.719971H147.354V19.776H147.786L155.034 0.719971H164.682L152.346 30.72H139.002ZM135.882 2.87997L115.578 0.719971H135.786L135.882 2.87997ZM136.17 7.48797L115.818 5.32797H136.026L136.17 7.48797ZM136.41 12.096L116.106 9.93597H136.314L136.41 12.096ZM136.698 16.704L116.394 14.544H136.554L136.698 16.704ZM136.986 21.312L116.682 19.152H136.842L136.986 21.312ZM137.274 25.92L116.922 23.76H137.13L137.274 25.92ZM137.562 30.576L117.21 28.416H137.418L137.562 30.576ZM174.952 30.72L176.344 22.56L172.024 0.719971H182.104L182.728 11.28H183.064L187.48 0.719971H197.56L185.464 22.56L184.072 30.72H174.952ZM171.016 2.87997L150.712 0.719971H170.584L171.016 2.87997ZM171.88 7.48797L151.576 5.32797H171.448L171.88 7.48797ZM172.792 12.096L152.488 9.93597H172.36L172.792 12.096ZM173.704 16.704L153.352 14.544H173.272L173.704 16.704ZM174.616 21.312L154.264 19.152H174.184L174.616 21.312ZM174.28 25.92L153.976 23.76H174.616L174.28 25.92ZM173.464 30.576L153.16 28.416H173.848L173.464 30.576Z"
      fill="url(#savvyGradient)"
      stroke="#9DAFDD"
      stroke-width="0.45"
    />
    <path
      d="M28.9918 31.44C27.1038 31.44 25.2478 31.328 23.4238 31.104C21.6318 30.912 19.8878 30.608 18.1918 30.192L20.8798 22.272C22.0958 22.592 23.4078 22.864 24.8158 23.088C26.2238 23.28 27.5518 23.376 28.7998 23.376C29.8238 23.376 30.7198 23.36 31.4878 23.328C32.2558 23.264 32.9918 23.184 33.6958 23.088L34.0798 20.688L30.0958 20.304C26.9598 19.984 24.7838 19.28 23.5678 18.192C22.3518 17.072 21.7438 15.552 21.7438 13.632C21.7438 12.768 21.8398 11.808 22.0318 10.752C22.5438 8.03197 23.2798 5.88797 24.2398 4.31997C25.2318 2.75197 26.6398 1.64797 28.4638 1.00797C30.2878 0.335969 32.7038 -3.14713e-05 35.7118 -3.14713e-05C37.4718 -3.14713e-05 39.1998 0.0959692 40.8958 0.287971C42.5918 0.47997 44.2238 0.78397 45.7918 1.19997L43.2958 8.87997C42.0478 8.65597 40.8638 8.47997 39.7438 8.35197C38.6238 8.22397 37.3758 8.15997 35.9998 8.15997C35.2638 8.15997 34.6398 8.17597 34.1278 8.20797C33.6158 8.23997 32.9918 8.30397 32.2558 8.39997L31.8718 10.752L35.0878 11.088C37.3918 11.312 39.1998 11.76 40.5118 12.432C41.8238 13.072 42.7518 13.888 43.2958 14.88C43.8398 15.84 44.1118 16.96 44.1118 18.24C44.1118 18.624 44.0798 19.024 44.0158 19.44C43.9838 19.824 43.9358 20.24 43.8718 20.688C43.4238 23.28 42.7038 25.312 41.7118 26.784C40.7198 28.256 39.5518 29.328 38.2078 30C36.8638 30.64 35.3918 31.04 33.7918 31.2C32.2238 31.36 30.6238 31.44 28.9918 31.44ZM23.4718 2.68797L4.94377 0.719971H25.5838C25.1678 0.975969 24.7838 1.27997 24.4318 1.63197C24.1118 1.95197 23.7918 2.30397 23.4718 2.68797ZM21.2638 7.43997L1.34377 5.32797H21.9838L21.2638 7.43997ZM20.3518 12.096L-0.000226974 9.93597H20.6878C20.6558 10.032 20.6238 10.128 20.5918 10.224C20.5918 10.32 20.5918 10.416 20.5918 10.512C20.5598 10.736 20.5118 10.976 20.4478 11.232C20.4158 11.488 20.3838 11.776 20.3518 12.096ZM20.7358 16.704L0.431773 14.544H20.3518C20.3838 14.96 20.4158 15.344 20.4478 15.696C20.5118 16.016 20.6078 16.352 20.7358 16.704ZM27.0718 21.312L1.67977 19.152H22.3678C23.4238 20.176 24.9918 20.896 27.0718 21.312ZM18.0958 25.872L0.863773 23.76H18.8158L18.0958 25.872ZM16.5598 30.528L0.0477731 28.416H17.2798L16.5598 30.528ZM55.4806 30.72L68.1046 0.719971H82.2166L84.3287 30.72H74.6806L74.4886 25.968H66.9526L65.0806 30.72H55.4806ZM65.6566 2.78397L46.0726 0.719971H66.5206L65.6566 2.78397ZM63.6886 7.39197L44.1046 5.32797H64.5526L63.6886 7.39197ZM61.7686 12.048L42.1366 9.93597H62.6326L61.7686 12.048ZM69.9286 18.336H73.7686V9.93597H73.2886L69.9286 18.336ZM59.8006 16.656L40.1686 14.544H60.7126L59.8006 16.656ZM57.8806 21.264L38.2006 19.152H58.7446L57.8806 21.264ZM55.9126 25.872L36.2326 23.76H56.8246L55.9126 25.872ZM53.9446 30.528L34.2646 28.416H54.8566L53.9446 30.528ZM100.939 30.72L99.1633 0.719971H109.291V19.776H109.723L116.971 0.719971H126.619L114.283 30.72H100.939ZM97.8193 2.87997L77.5153 0.719971H97.7233L97.8193 2.87997ZM98.1073 7.48797L77.7553 5.32797H97.9633L98.1073 7.48797ZM98.3473 12.096L78.0433 9.93597H98.2513L98.3473 12.096ZM98.6353 16.704L78.3313 14.544H98.4913L98.6353 16.704ZM98.9233 21.312L78.6193 19.152H98.7793L98.9233 21.312ZM99.2113 25.92L78.8593 23.76H99.0673L99.2113 25.92ZM99.4993 30.576L79.1473 28.416H99.3553L99.4993 30.576ZM139.002 30.72L137.226 0.719971H147.354V19.776H147.786L155.034 0.719971H164.682L152.346 30.72H139.002ZM135.882 2.87997L115.578 0.719971H135.786L135.882 2.87997ZM136.17 7.48797L115.818 5.32797H136.026L136.17 7.48797ZM136.41 12.096L116.106 9.93597H136.314L136.41 12.096ZM136.698 16.704L116.394 14.544H136.554L136.698 16.704ZM136.986 21.312L116.682 19.152H136.842L136.986 21.312ZM137.274 25.92L116.922 23.76H137.13L137.274 25.92ZM137.562 30.576L117.21 28.416H137.418L137.562 30.576ZM174.952 30.72L176.344 22.56L172.024 0.719971H182.104L182.728 11.28H183.064L187.48 0.719971H197.56L185.464 22.56L184.072 30.72H174.952ZM171.016 2.87997L150.712 0.719971H170.584L171.016 2.87997ZM171.88 7.48797L151.576 5.32797H171.448L171.88 7.48797ZM172.792 12.096L152.488 9.93597H172.36L172.792 12.096ZM173.704 16.704L153.352 14.544H173.272L173.704 16.704ZM174.616 21.312L154.264 19.152H174.184L174.616 21.312ZM174.28 25.92L153.976 23.76H174.616L174.28 25.92ZM173.464 30.576L153.16 28.416H173.848L173.464 30.576Z"
      fill="url(#savvyHighlight)"
      opacity="0.72"
    />
  </g>
</svg>
